<svg width="21" height="18" viewBox="0 0 21 18" fill="none" xmlns="http://www.w3.org/2000/svg">
<path d="M9.20817 17.3804C9.20536 17.3804 9.20208 17.3804 9.19926 17.3804C9.08301 17.3781 8.97333 17.3308 8.89458 17.2493L0.85739 8.90719C0.719573 8.76401 0.706921 8.54833 0.82739 8.39129C0.947858 8.23467 1.16723 8.18098 1.35192 8.26331L8.70802 11.5512C8.76989 11.5789 8.84301 11.5655 8.89036 11.5184L20.1113 0.323882C20.2632 0.172202 20.5116 0.155642 20.6841 0.2863C20.8566 0.416947 20.8964 0.651406 20.776 0.82726L9.61411 17.149C9.59817 17.1728 9.57942 17.1943 9.5588 17.2144L9.50957 17.2614C9.42942 17.3375 9.32067 17.3804 9.20817 17.3804Z" fill="#34D674"/>
</svg>
